<?xml version="1.0" standalone="no"?>
<!DOCTYPE svg PUBLIC "-//W3C//DTD SVG 20010904//EN"
 "http://www.w3.org/TR/2001/REC-SVG-20010904/DTD/svg10.dtd">
<svg version="1.0" xmlns="http://www.w3.org/2000/svg"
 width="285.000000pt" height="285.000000pt" viewBox="0 0 285.000000 285.000000"
 preserveAspectRatio="xMidYMid meet">
<metadata>
Created by potrace 1.11, written by Peter Selinger 2001-2013
</metadata>
<g transform="translate(0.000000,285.000000) scale(0.100000,-0.100000)"
fill="#000000" stroke="none">
<path d="M290 2838 c0 -6 5 -40 11 -75 12 -67 8 -83 -13 -66 -23 18 -101 44
-132 45 -17 1 -53 12 -81 24 -27 13 -56 24 -62 24 -10 0 -13 -59 -13 -264 l0
-264 55 -33 c30 -18 52 -35 49 -38 -3 -4 -26 -13 -52 -21 l-47 -15 -3 -632
c-1 -348 1 -633 4 -633 13 0 130 31 149 40 65 29 115 48 115 44 0 -3 -6 -17
-14 -32 -41 -81 -88 -240 -92 -311 -3 -42 -10 -92 -15 -112 -10 -32 -9 -38 15
-63 14 -16 28 -37 32 -48 5 -17 10 -13 41 26 20 26 41 46 47 46 21 0 118 50
150 76 46 39 69 78 137 226 61 136 88 180 74 123 -4 -16 -8 -38 -10 -48 -2 -9
-6 -21 -9 -26 -4 -5 -7 -103 -8 -218 l-1 -208 27 -13 c36 -18 108 -8 131 18
10 11 22 20 26 20 5 0 16 -26 25 -57 26 -93 50 -128 115 -178 61 -47 84 -51
96 -18 4 10 26 35 48 55 48 43 105 142 108 188 2 27 17 45 17 19 0 -6 8 -23
19 -37 10 -15 29 -58 41 -97 29 -88 41 -106 92 -140 49 -33 59 -26 68 47 5 30
27 93 51 143 39 80 44 97 44 160 0 39 -4 82 -7 96 -7 24 -5 25 21 21 21 -3 30
1 33 12 2 11 18 -3 52 -43 68 -84 95 -131 100 -182 3 -24 10 -80 15 -124 6
-44 11 -120 12 -170 3 -126 2 -125 56 -125 l45 0 -6 38 c-4 20 -7 89 -8 152 0
63 -5 123 -10 134 -6 10 -6 17 -1 14 100 -50 127 -60 167 -60 25 -1 52 5 60
12 9 7 29 10 45 8 25 -4 28 -2 21 13 -5 9 -22 19 -38 22 -53 11 -254 230 -236
258 6 11 44 -8 44 -21 0 -6 6 -10 14 -10 33 0 31 81 -3 150 -10 19 -26 71 -35
115 -10 44 -20 88 -22 98 -7 23 21 23 38 0 19 -26 98 -79 165 -111 106 -51
192 -103 197 -120 3 -9 4 -38 1 -64 -7 -86 44 -76 62 12 3 17 12 30 19 30 8 0
46 32 85 71 72 74 127 164 131 218 2 23 8 31 28 36 14 3 33 16 43 28 20 24 20
28 1 -135 -7 -57 -22 -87 -34 -68 -17 27 -73 -117 -64 -165 12 -66 19 -84 46
-118 25 -32 30 -45 25 -77 -5 -41 13 -70 45 -70 13 0 14 -7 7 -42 -5 -24 -13
-67 -19 -96 -5 -30 -18 -67 -28 -84 l-19 -30 -8 38 c-10 53 -25 79 -94 159
-33 39 -75 88 -93 109 -18 22 -46 47 -63 58 -56 34 -60 20 -10 -37 19 -22 49
-67 66 -99 18 -32 46 -75 63 -95 57 -65 84 -106 97 -149 10 -35 10 -48 -4 -82
l-16 -41 32 3 c29 3 35 11 87 113 60 121 79 143 164 195 l58 35 -6 270 c-6
323 -6 269 0 395 4 68 1 116 -6 135 l-12 30 -14 -34 c-8 -18 -14 -43 -14 -55
0 -48 -16 -35 -30 26 -15 61 -15 65 7 133 13 39 26 85 29 103 3 19 13 53 22
75 15 38 17 114 20 735 l3 692 -791 0 -790 0 0 -22 0 -21 -23 21 c-23 22 -25
22 -490 22 -350 0 -467 -3 -467 -12z m2531 -385 c-9 -15 -10 -14 -7 7 6 35 7
37 12 23 3 -7 1 -20 -5 -30z m-26 -745 c-2 -7 -6 -33 -9 -58 -6 -56 -65 -287
-80 -318 -12 -23 -13 -22 -34 20 -45 92 -126 307 -118 315 3 3 25 8 48 10 24
2 50 5 58 7 8 1 36 6 63 10 26 5 50 12 53 17 8 14 24 11 19 -3z m-333 -74 l21
-43 -26 -113 c-15 -62 -29 -130 -33 -150 l-6 -38 -37 28 c-20 15 -71 45 -115
66 l-79 39 82 23 c114 33 168 61 185 94 16 33 9 47 -51 111 l-33 35 36 -4 c30
-4 38 -11 56 -48z m142 -332 c55 -110 62 -139 50 -199 l-6 -30 -23 23 c-12 12
-47 36 -78 54 -30 17 -58 37 -61 45 -5 14 0 127 9 173 2 14 7 46 11 71 10 66
16 71 30 21 6 -25 37 -96 68 -158z m-524 -149 c36 -17 86 -36 113 -43 57 -15
60 -20 46 -57 -15 -40 -20 -70 -22 -135 -1 -49 -3 -55 -17 -48 -29 16 -39 35
-54 104 -7 37 -22 76 -32 88 -27 30 -136 108 -151 108 -7 0 -13 4 -13 9 0 5
-3 17 -6 26 -6 15 -2 15 32 -3 21 -10 68 -33 104 -49z m661 -291 c7 -34 -3
-41 -27 -18 -15 16 -18 38 -7 50 13 13 28 -1 34 -32z"/>
<path d="M255 214 c-28 -14 -72 -49 -100 -77 -27 -29 -75 -70 -105 -92 l-55
-40 40 -3 c37 -3 43 0 92 55 91 101 137 148 163 165 37 25 21 21 -35 -8z"/>
<path d="M371 64 c-24 -63 -24 -64 -13 -64 9 0 46 109 39 116 -2 2 -14 -21
-26 -52z"/>
</g>
</svg>
